<?xml version="1.0" encoding="UTF-8" standalone="no"?>
<!DOCTYPE svg PUBLIC "-//W3C//DTD SVG 1.1//EN" "http://www.w3.org/Graphics/SVG/1.1/DTD/svg11.dtd">
<svg width="100%" height="100%" viewBox="0 0 4253 3363" version="1.1" xmlns="http://www.w3.org/2000/svg" xmlns:xlink="http://www.w3.org/1999/xlink" xml:space="preserve" xmlns:serif="http://www.serif.com/" style="fill-rule:evenodd;clip-rule:evenodd;stroke-linejoin:round;stroke-miterlimit:1.41421;">
    <g transform="matrix(1,0,0,1,-1658.46,-2824.35)">
        <g transform="matrix(1.10356,-0.295698,0.295698,1.10356,-1293.37,624.327)">
            <path d="M4191.28,3907.76C4137.83,3653.31 4279.93,3392.05 4531.77,3303.27C4805.92,3206.63 5106.96,3350.74 5203.61,3624.89C5229.18,3697.44 5237.9,3771.87 5231.8,3843.89C5308.49,3903.66 5369.56,3985.34 5404.27,4083.79C5410.47,4101.39 5415.68,4119.1 5419.91,4136.84C5408.27,4141.93 5396.36,4146.63 5384.19,4150.91C5284.5,4186.06 5181.26,4189.37 5085.56,4166.13C5030.53,4223.17 4961.76,4268.6 4881.98,4296.73C4831.61,4314.48 4780.33,4324.11 4729.58,4326.3C4740.09,4342.41 4750.23,4358.9 4759.96,4375.77C5049.72,4877.64 4877.51,5520.34 4375.64,5810.09C3873.76,6099.85 3231.06,5927.64 2941.31,5425.77C2900.2,5354.57 2868.4,5280.54 2845.51,5205.09C2287.79,5349.73 1713.68,5499.45 1713.68,5499.45L1290.48,5166.44L2416.31,4516.44L2566.31,4776.25L2826.12,4626.25L2676.12,4366.44L3334.3,3986.44L3334.32,3986.48C3605.66,3833.19 3917.08,3813.85 4191.28,3907.76ZM3566.72,4390.28C3841.34,4231.73 4193.03,4325.96 4351.59,4600.59C4510.14,4875.21 4415.91,5226.9 4141.28,5385.45C3866.66,5544.01 3514.97,5449.77 3356.41,5175.15C3197.86,4900.52 3292.09,4548.84 3566.72,4390.28ZM4865,3617.42C4927.14,3581.54 5006.71,3602.87 5042.59,3665C5078.46,3727.14 5057.14,3806.71 4995,3842.59C4932.87,3878.46 4853.29,3857.14 4817.42,3795C4781.54,3732.87 4802.87,3653.29 4865,3617.42Z" style="fill:rgb(255,225,0);"/>
        </g>
    </g>
</svg>
