<?xml version="1.0" encoding="UTF-8" standalone="no"?>
<!DOCTYPE svg PUBLIC "-//W3C//DTD SVG 1.1//EN" "http://www.w3.org/Graphics/SVG/1.1/DTD/svg11.dtd">
<svg width="100%" height="100%" viewBox="0 0 500 500" version="1.1" xmlns="http://www.w3.org/2000/svg" xmlns:xlink="http://www.w3.org/1999/xlink" xml:space="preserve" xmlns:serif="http://www.serif.com/" style="fill-rule:evenodd;clip-rule:evenodd;stroke-linejoin:round;stroke-miterlimit:1.41421;">
    <g transform="matrix(1,0,0,1,-12.5,-12.5)">
        <path d="M225,225L225,27.5C225,23.522 226.58,19.706 229.393,16.893C232.206,14.08 236.022,12.5 240,12.5C253.071,12.5 271.929,12.5 285,12.5C288.978,12.5 292.794,14.08 295.607,16.893C298.42,19.706 300,23.522 300,27.5L300,225L497.5,225C501.478,225 505.294,226.58 508.107,229.393C510.92,232.206 512.5,236.022 512.5,240C512.5,253.071 512.5,271.929 512.5,285C512.5,288.978 510.92,292.794 508.107,295.607C505.294,298.42 501.478,300 497.5,300L300,300L300,497.5C300,501.478 298.42,505.294 295.607,508.107C292.794,510.92 288.978,512.5 285,512.5C271.929,512.5 253.071,512.5 240,512.5C236.022,512.5 232.206,510.92 229.393,508.107C226.58,505.294 225,501.478 225,497.5L225,300L27.5,300C23.522,300 19.706,298.42 16.893,295.607C14.08,292.794 12.5,288.978 12.5,285C12.5,271.929 12.5,253.071 12.5,240C12.5,236.022 14.08,232.206 16.893,229.393C19.706,226.58 23.522,225 27.5,225L225,225Z"/>
    </g>
</svg>
